<?xml version="1.0" standalone="no"?>
<!DOCTYPE svg PUBLIC "-//W3C//DTD SVG 20010904//EN"
 "http://www.w3.org/TR/2001/REC-SVG-20010904/DTD/svg10.dtd">
<svg version="1.0" xmlns="http://www.w3.org/2000/svg"
 width="250.000000pt" height="250.000000pt" viewBox="0 0 250.000000 250.000000"
 preserveAspectRatio="xMidYMid meet">
<metadata>
Created by potrace 1.11, written by Peter Selinger 2001-2013
</metadata>
<g transform="translate(0.000000,250.000000) scale(0.100000,-0.100000)"
fill="#000000" stroke="none">
<path d="M0 2480 c0 -12 7 -20 18 -20 9 0 23 9 30 20 11 18 10 20 -18 20 -23
0 -30 -4 -30 -20z"/>
<path d="M220 2485 c0 -9 -14 -22 -30 -29 l-30 -12 25 -23 c16 -13 24 -29 21
-39 -18 -62 -18 -73 2 -93 30 -27 35 -24 27 17 -5 27 -2 41 11 55 25 27 32 24
44 -21 12 -43 30 -45 30 -4 0 14 7 32 15 41 8 8 12 20 8 26 -4 7 -10 30 -13
52 -4 34 -9 40 -31 43 -21 2 -27 -1 -25 -15 0 -12 -7 -19 -22 -21 -21 -3 -22
-1 -12 17 9 17 8 21 -5 21 -8 0 -15 -7 -15 -15z"/>
<path d="M484 2434 c3 -72 -10 -90 -43 -60 -25 23 -69 11 -82 -21 -12 -32 -12
-33 5 -33 8 0 16 7 20 15 8 21 35 8 42 -20 3 -13 2 -31 -3 -42 -5 -10 -6 -31
-2 -48 3 -16 7 -24 8 -17 2 20 28 13 34 -10 10 -36 -24 -79 -36 -45 -7 20 -14
5 -21 -50 -8 -61 3 -68 27 -19 9 19 52 63 99 101 45 37 83 72 84 79 2 25 5 28
17 19 23 -18 45 -22 43 -8 -2 15 -47 60 -68 68 -10 4 -10 6 0 6 14 1 16 44 3
69 -5 9 -12 26 -16 36 -4 15 -9 16 -17 8 -9 -9 -8 -16 4 -29 11 -13 13 -25 7
-40 -9 -24 -33 -31 -44 -13 -6 9 -13 63 -14 103 -1 11 -9 17 -25 17 -23 0 -24
-2 -22 -66z m26 -154 c10 -38 0 -55 -17 -30 -8 11 -11 25 -7 32 4 7 3 8 -4 4
-15 -9 -34 2 -26 15 11 19 48 5 54 -21z"/>
<path d="M610 2496 c0 -3 11 -16 26 -29 16 -15 27 -38 30 -62 3 -21 9 -44 15
-51 6 -7 10 -21 9 -31 -4 -38 0 -43 43 -43 23 -1 56 -7 72 -15 l30 -13 -40 -1
c-22 -1 -53 -10 -70 -21 -30 -20 -28 -27 3 -11 29 14 72 22 72 12 0 -5 -10
-11 -23 -14 -25 -7 -111 -86 -103 -95 4 -3 12 1 19 10 22 28 82 66 112 73 l30
7 -32 -19 c-94 -53 -180 -156 -221 -263 -12 -30 -21 -47 -21 -38 -1 29 36 117
64 154 14 19 22 34 18 34 -13 -1 -71 -82 -88 -123 -16 -38 -28 -50 -20 -19 3
9 -6 -5 -20 -33 l-25 -50 5 40 c4 35 3 37 -7 18 -6 -13 -14 -23 -18 -23 -11 0
18 79 39 109 10 14 24 37 31 51 l13 25 -27 -24 c-29 -27 -35 -19 -9 13 10 12
-1 4 -23 -17 -22 -20 -43 -35 -46 -31 -4 3 -21 -19 -39 -50 -17 -32 -34 -55
-36 -52 -3 3 7 31 21 63 21 47 22 53 6 33 -11 -14 -20 -28 -20 -32 0 -5 -7 -8
-16 -8 -8 0 -13 -4 -9 -9 3 -5 1 -12 -4 -15 -5 -3 -7 -15 -4 -27 5 -19 -9 -38
-29 -39 -12 0 -10 34 2 46 7 7 7 21 -1 43 -8 21 -9 70 -5 144 10 175 11 168
-28 142 -14 -10 -33 -15 -41 -12 -17 7 -34 -18 -29 -42 2 -9 -7 -24 -20 -33
-23 -17 -25 -16 -51 8 -17 16 -25 32 -22 44 3 10 0 21 -5 22 -5 2 -13 19 -17
38 -12 61 -26 38 -27 -46 -1 -45 -7 -90 -13 -101 -5 -11 -8 -23 -4 -26 3 -4 0
-13 -7 -22 -10 -12 -9 -20 4 -40 24 -36 13 -115 -15 -115 -15 0 -18 5 -14 23
3 12 -1 31 -9 42 -14 18 -15 12 -16 -78 0 -88 2 -97 15 -83 10 9 13 24 10 39
-5 19 -2 25 14 30 28 7 41 -31 16 -49 -15 -11 -15 -14 -1 -37 13 -19 16 -43
12 -116 -2 -54 0 -91 5 -91 6 0 10 -21 9 -47 0 -27 3 -68 8 -93 10 -58 -5
-127 -29 -133 -10 -3 -20 -2 -23 1 -10 10 -6 42 4 42 7 0 9 20 5 58 -3 31 -8
77 -10 100 -3 24 -1 51 4 60 6 11 4 20 -6 27 -9 7 -18 37 -23 71 -4 32 -8
-336 -9 -818 l-1 -878 1250 0 1250 0 0 26 c0 21 -4 25 -19 21 -15 -3 -19 0
-18 14 1 13 7 17 19 13 16 -5 18 4 17 101 0 89 -3 106 -15 101 -12 -5 -12 -2
-3 15 12 23 7 35 -10 24 -6 -3 -9 -11 -6 -16 4 -5 -5 -9 -19 -9 -14 0 -30 -8
-36 -17 -8 -14 -9 -12 -4 12 9 41 14 47 30 41 10 -4 11 0 2 19 -11 26 -44 36
-76 24 -22 -8 -72 22 -72 43 0 7 5 6 14 -1 11 -9 15 -9 19 1 4 10 6 10 6 1 1
-15 31 -18 31 -3 0 5 -8 14 -17 19 -15 9 -15 10 -2 11 8 0 20 -5 27 -12 9 -9
12 -8 12 4 0 9 3 18 7 21 5 2 3 2 -4 1 -7 -2 -15 1 -17 5 -3 5 11 11 32 15 21
3 53 13 70 22 30 14 32 19 32 65 0 48 -1 49 -26 43 -20 -5 -25 -3 -22 7 3 8
15 16 28 17 18 3 20 6 9 12 -11 7 -11 12 -1 22 6 6 12 19 12 27 0 9 -8 0 -18
-19 -14 -29 -17 -31 -21 -15 -5 27 -43 70 -61 70 -8 0 -23 -11 -32 -25 -20
-28 -41 -38 -80 -39 -21 -1 -28 -6 -28 -20 0 -13 -9 -20 -29 -23 -26 -4 -29
-2 -20 13 14 26 12 29 -22 29 -18 0 -28 4 -24 10 4 6 11 8 16 4 5 -3 15 -1 22
4 15 11 47 12 47 0 0 -4 4 -8 10 -8 5 0 7 7 4 15 -4 10 0 15 11 15 9 0 13 5 9
11 -3 6 -25 9 -50 6 -24 -2 -44 0 -44 5 0 8 30 12 58 9 23 -3 62 28 62 49 0
11 5 20 10 20 6 0 10 -7 10 -16 0 -13 7 -15 31 -10 17 3 38 6 45 6 8 0 14 5
14 11 0 8 -14 10 -42 6 -39 -5 -41 -4 -24 9 19 14 19 14 -5 15 -13 1 -27 1
-31 0 -5 0 -8 3 -8 8 0 16 -55 30 -74 19 -13 -7 -21 -7 -26 2 -4 7 -12 10 -18
6 -11 -7 -62 13 -62 24 0 4 -14 7 -31 8 -17 0 -34 4 -37 7 -11 11 18 22 46 18
15 -2 21 0 15 3 -23 10 -14 24 16 24 21 0 36 8 51 29 11 17 28 30 38 30 33 0
102 14 98 20 -2 3 -31 4 -65 3 -57 -4 -61 -6 -81 -39 -14 -24 -25 -33 -36 -29
-9 3 -20 6 -26 6 -6 0 -8 11 -6 25 5 22 2 24 -41 28 -37 3 -42 5 -23 11 12 5
22 12 22 17 0 12 47 11 55 -1 3 -5 13 -6 21 -3 9 3 20 0 25 -8 7 -11 9 -10 9
4 0 24 23 31 50 17 13 -7 20 -8 16 -2 -6 11 48 62 66 62 7 0 2 -7 -10 -16 -27
-19 -20 -34 15 -34 18 0 24 -4 20 -14 -3 -8 1 -20 9 -26 11 -10 14 -9 14 4 0
9 7 16 16 16 8 0 13 -4 10 -8 -3 -5 9 -6 26 -4 l31 5 -27 14 c-15 8 -34 12
-43 9 -10 -4 -13 -1 -11 12 2 9 10 16 19 15 9 -2 15 5 15 17 0 23 -21 27 -30
5 -8 -23 -23 -18 -28 10 -6 27 28 66 50 58 6 -3 12 0 12 6 0 6 -5 10 -11 9 -6
-2 -14 3 -16 10 -3 7 3 12 15 12 23 0 46 25 37 40 -3 5 4 14 17 19 13 6 17 10
10 10 -7 1 -10 6 -7 11 5 8 12 7 23 -2 12 -10 14 -10 8 0 -4 7 -1 15 8 18 20
8 21 30 1 38 -9 3 -15 0 -15 -9 0 -17 -9 -19 -30 -5 -19 12 -9 20 32 30 l33 7
-25 11 c-14 6 -19 11 -12 11 17 1 15 21 -3 21 -18 0 -49 45 -41 59 4 6 14 7
24 4 16 -6 16 -6 0 11 -16 16 -20 16 -33 2 -13 -13 -14 -20 -4 -38 7 -12 18
-28 25 -36 17 -16 6 -45 -14 -37 -8 3 -20 0 -28 -5 -9 -9 -15 -6 -24 9 -9 17
-8 21 5 21 8 0 15 4 15 10 0 5 -6 7 -13 4 -7 -2 -34 2 -59 10 -32 9 -48 10
-51 3 -2 -7 -9 -7 -18 -2 -20 13 -121 7 -130 -7 -5 -7 -11 -9 -15 -5 -4 4 -12
2 -19 -3 -8 -6 -18 -5 -31 5 -16 13 -16 14 -1 9 15 -6 22 7 19 37 -1 9 32 7
45 -3 7 -5 14 -5 18 2 4 7 12 7 25 0 16 -8 18 -8 14 5 -4 8 -1 15 5 15 6 0 11
6 11 14 0 16 34 31 50 21 5 -3 10 -1 10 4 0 14 37 14 45 1 4 -6 11 -8 16 -5 5
4 16 -1 25 -9 22 -22 37 -20 29 4 -5 16 -2 20 18 20 14 0 30 7 37 15 9 11 10
15 1 15 -7 0 -11 10 -9 23 2 12 9 21 15 20 6 -1 14 4 17 12 3 10 -1 15 -14 15
-10 0 -22 5 -25 10 -3 6 -1 10 5 10 15 0 1 52 -19 68 -15 12 -15 13 1 10 9 -2
24 6 33 17 9 11 14 14 10 8 -4 -9 2 -13 20 -13 15 0 24 4 20 10 -4 6 -12 7
-18 3 -8 -4 -7 -1 1 9 10 13 10 17 0 21 -8 4 -5 8 9 12 33 10 17 27 -18 20
-28 -6 -40 7 -19 20 6 4 8 10 6 14 -3 4 4 8 15 8 11 1 17 -2 14 -8 -10 -15 12
-10 26 7 10 13 10 17 -2 25 -8 4 -21 6 -30 4 -19 -6 -44 19 -34 35 11 17 25
11 25 -11 0 -11 4 -18 10 -14 5 3 6 13 3 22 -4 10 -2 14 5 9 6 -3 13 -2 17 3
3 6 -3 8 -15 6 -27 -5 -36 13 -14 29 15 12 13 14 -22 21 -21 5 -43 9 -48 9 -5
1 -11 6 -13 13 -5 13 34 6 55 -10 15 -12 65 41 57 61 -2 6 1 12 8 12 8 0 6 4
-3 10 -10 6 -11 10 -2 10 8 0 12 22 12 74 0 50 -4 76 -12 80 -10 5 -10 7 0 12
22 10 13 24 -17 24 -17 0 -32 4 -36 9 -3 6 9 8 29 4 l34 -5 1 106 1 106 -176
0 c-112 0 -183 -4 -197 -11 -15 -9 -22 -9 -25 -1 -2 8 -81 11 -264 11 l-260 0
4 -62 c2 -50 0 -62 -12 -62 -10 0 -14 8 -13 23 2 12 -2 22 -7 22 -5 0 -13 18
-16 40 l-7 40 -64 0 c-58 0 -64 -2 -57 -17 4 -10 6 -35 5 -55 -1 -28 3 -40 19
-48 28 -15 44 -48 31 -64 -7 -9 -7 -16 1 -24 6 -6 11 -33 10 -59 0 -26 4 -51
10 -54 6 -4 2 -30 -11 -70 -11 -35 -20 -54 -20 -42 -1 23 -28 133 -35 140 -2
2 -4 -14 -4 -36 0 -22 -5 -48 -11 -59 -6 -11 -6 -33 -1 -57 10 -44 -7 -75 -40
-75 -31 0 -87 77 -81 112 0 4 -6 5 -14 2 -8 -4 -15 -11 -15 -17 0 -6 -3 -8 -6
-4 -3 3 2 19 12 36 12 20 21 27 25 19 6 -9 16 -4 33 15 33 36 33 44 -5 90
l-32 39 35 28 c27 23 34 35 32 60 -1 18 -12 41 -23 51 -23 22 -26 41 -11 70
10 17 7 19 -20 19 -25 0 -30 -4 -30 -25 0 -19 -5 -25 -23 -25 -28 0 -47 18
-40 36 4 11 -5 14 -45 13 l-50 -2 20 -21 c41 -44 52 -78 49 -161 -2 -68 -5
-83 -23 -96 -14 -11 -17 -18 -9 -23 6 -4 11 -18 11 -32 0 -13 9 -29 20 -36 27
-17 25 -31 -2 -22 -13 4 -47 7 -75 6 -29 -2 -53 1 -53 5 0 5 -15 17 -32 28
-18 10 -35 22 -38 25 -3 4 -18 14 -35 23 -16 8 -45 23 -63 32 -26 14 -30 20
-21 31 6 8 24 14 39 14 51 0 57 7 50 55 -9 57 6 89 43 93 36 4 30 24 -11 34
-22 6 -32 15 -32 28 0 14 -7 20 -24 20 -31 0 -34 -10 -25 -79 4 -30 7 -56 6
-58 -8 -7 -47 69 -50 97 l-4 35 -117 3 c-64 1 -116 0 -116 -2z m865 -45 c8
-16 11 -31 8 -35 -3 -3 1 -14 9 -23 23 -25 28 -93 8 -93 -5 0 -10 8 -11 18 0
9 -9 31 -20 47 -35 56 -42 73 -35 100 8 30 20 26 41 -14z m202 7 c-3 -7 -5 -2
-5 12 0 14 2 19 5 13 2 -7 2 -19 0 -25z m238 22 c4 -6 -5 -10 -19 -10 -14 0
-26 5 -26 10 0 6 9 10 19 10 11 0 23 -4 26 -10z m538 -10 c3 -11 2 -20 -3 -20
-4 0 -10 9 -13 20 -3 11 -2 20 3 20 4 0 10 -9 13 -20z m-75 -11 c-2 -6 -8 -10
-13 -10 -5 0 -11 4 -13 10 -2 6 4 11 13 11 9 0 15 -5 13 -11z m56 -21 c6 -5 1
-8 -11 -8 -25 0 -26 1 -16 26 5 14 8 15 11 3 3 -7 10 -17 16 -21z m-519 12 c3
-5 1 -10 -4 -10 -6 0 -11 5 -11 10 0 6 2 10 4 10 3 0 8 -4 11 -10z m233 -13
c1 -4 0 -7 -3 -7 -3 0 -14 0 -25 0 -11 0 -20 4 -20 8 0 9 44 8 48 -1z m-471
-29 c-3 -7 -5 -2 -5 12 0 14 2 19 5 13 2 -7 2 -19 0 -25z m-456 5 c0 -10 2
-31 5 -48 5 -36 -3 -75 -15 -75 -9 0 -21 108 -14 128 7 18 23 15 24 -5z m767
5 c-2 -7 5 -12 15 -10 24 4 22 -14 -3 -21 -11 -3 -20 -1 -20 5 0 6 -7 8 -15 4
-13 -4 -14 -2 -5 14 12 22 31 27 28 8z m402 3 c0 -6 -4 -13 -10 -16 -5 -3 -10
1 -10 9 0 9 5 16 10 16 6 0 10 -4 10 -9z m-497 -18 c-6 -15 -39 -18 -48 -3 -4
6 -11 7 -17 4 -7 -4 -8 -2 -4 4 10 17 75 12 69 -5z m452 7 c-3 -5 -12 -10 -18
-10 -7 0 -6 4 3 10 19 12 23 12 15 0z m-410 -11 c11 -17 -1 -21 -15 -4 -8 9
-8 15 -2 15 6 0 14 -5 17 -11z m170 -9 c3 -5 -1 -10 -9 -10 -9 0 -16 5 -16 10
0 6 4 10 9 10 6 0 13 -4 16 -10z m52 4 c-3 -3 -12 -4 -19 -1 -8 3 -5 6 6 6 11
1 17 -2 13 -5z m333 -5 c0 -5 -5 -9 -11 -9 -7 0 -17 -7 -23 -15 -9 -13 -11
-11 -12 9 -1 19 3 24 22 24 13 0 24 -4 24 -9z m-113 -24 c0 -8 -7 -15 -15 -15
-12 0 -12 3 -2 15 7 8 13 15 15 15 1 0 2 -7 2 -15z m-672 -6 c12 -19 -5 -23
-22 -6 -16 16 -16 17 -1 17 9 0 20 -5 23 -11z m-842 -29 c-3 -11 -9 -20 -14
-20 -10 0 -11 12 -3 34 9 22 23 10 17 -14z m1077 19 c0 -4 -14 -7 -31 -7 -16
1 -26 4 -20 7 14 9 51 8 51 0z m30 1 c0 -7 6 -7 19 0 11 5 26 10 33 10 7 0 -2
-8 -19 -16 -18 -9 -33 -22 -33 -28 0 -15 -20 16 -20 32 0 6 5 12 10 12 6 0 10
-5 10 -10z m311 -17 c10 -12 11 -15 1 -9 -7 4 -19 3 -27 -4 -9 -7 -15 -8 -20
0 -3 5 1 10 9 10 9 0 16 5 16 10 0 14 6 12 21 -7z m189 2 c-7 -9 -15 -13 -19
-10 -3 3 1 10 9 15 21 14 24 12 10 -5z m-775 -5 c3 -5 -1 -10 -10 -10 -9 0
-13 5 -10 10 3 6 8 10 10 10 2 0 7 -4 10 -10z m340 0 c3 -5 1 -10 -4 -10 -6 0
-11 5 -11 10 0 6 2 10 4 10 3 0 8 -4 11 -10z m320 0 c7 -12 -12 -12 -40 0 -18
8 -17 9 7 9 15 1 30 -3 33 -9z m55 -20 c0 -21 -15 -27 -25 -10 -3 6 -1 10 5
10 6 0 8 5 5 10 -3 6 -1 10 4 10 6 0 11 -9 11 -20z m-650 0 c0 -5 -5 -10 -11
-10 -5 0 -7 5 -4 10 3 6 8 10 11 10 2 0 4 -4 4 -10z m335 0 c-3 -5 -14 -10
-23 -10 -15 0 -15 2 -2 10 20 13 33 13 25 0z m-167 -22 c3 -16 1 -16 -27 -2
-38 19 -39 26 -4 22 17 -2 29 -10 31 -20z m-233 -8 c3 -5 1 -10 -4 -10 -6 0
-11 5 -11 10 0 6 2 10 4 10 3 0 8 -4 11 -10z m310 0 c-3 -5 -13 -10 -21 -10
-8 0 -14 5 -14 10 0 6 9 10 21 10 11 0 17 -4 14 -10z m-205 -15 c16 -19 11
-19 -31 0 -33 14 -33 14 -8 15 15 0 32 -7 39 -15z m60 1 c0 -2 -7 -6 -15 -10
-8 -3 -15 -1 -15 4 0 6 7 10 15 10 8 0 15 -2 15 -4z m-174 -43 c-11 -11 -17 4
-9 23 7 18 8 18 11 1 2 -10 1 -21 -2 -24z m779 27 c3 -5 1 -10 -4 -10 -6 0
-11 5 -11 10 0 6 2 10 4 10 3 0 8 -4 11 -10z m-575 -15 c0 -7 -30 -13 -34 -7
-3 4 4 9 15 9 10 1 19 0 19 -2z m-82 -16 c-2 -6 -7 -10 -11 -10 -4 1 -19 1
-33 1 -14 0 -23 4 -19 10 8 14 68 13 63 -1z m-1008 -57 c-50 -34 -101 -86
-132 -133 -34 -53 -49 -59 -24 -10 25 47 76 101 125 133 48 30 72 38 31 10z
m164 -7 c17 -14 51 -43 76 -65 25 -21 64 -52 88 -68 42 -28 90 -87 137 -167
28 -49 42 -90 26 -81 -10 7 -139 -51 -172 -77 -17 -13 -22 -47 -6 -47 5 0 7
-9 4 -19 -7 -28 16 -56 63 -75 48 -19 78 -10 108 31 18 25 22 26 35 13 32 -34
50 -105 54 -217 4 -125 -8 -176 -59 -252 -29 -43 -31 -64 -4 -42 10 8 16 9 21
1 10 -16 25 -12 19 5 -5 11 -2 13 10 9 9 -3 16 -1 16 5 0 6 -7 11 -15 11 -8 0
-15 5 -15 10 0 6 4 10 9 10 5 0 17 7 25 16 15 14 16 12 16 -20 0 -20 -4 -36
-10 -36 -14 0 -12 -27 3 -32 31 -12 115 -2 142 17 l30 20 -24 3 c-29 5 -56 28
-41 37 5 3 10 1 10 -4 0 -6 5 -11 11 -11 6 0 9 6 6 14 -3 8 0 17 8 20 17 6 27
-18 12 -33 -8 -8 -6 -11 10 -11 11 0 23 -7 27 -15 3 -8 1 -15 -4 -15 -15 0
-50 -33 -44 -42 3 -4 -5 -8 -18 -8 -13 0 -30 -6 -37 -12 -10 -11 -12 -10 -9 1
2 7 -3 16 -9 18 -7 3 -13 -3 -13 -12 0 -9 -5 -13 -10 -10 -6 4 -7 11 -4 17 5
7 0 9 -14 6 -12 -4 -22 -2 -22 3 0 5 -7 9 -15 9 -8 0 -12 -6 -9 -14 6 -16 -22
-30 -31 -16 -4 6 -14 10 -23 10 -13 0 -12 -5 8 -20 24 -19 19 -24 -17 -19 -3
0 -10 -6 -15 -15 -14 -25 -35 -19 -51 13 -12 25 -12 29 -1 24 8 -3 14 -14 14
-24 0 -23 7 -24 26 -4 9 8 11 15 6 15 -5 0 -13 9 -18 19 -7 15 -14 17 -31 10
-26 -9 -32 -56 -10 -78 7 -9 7 -11 1 -8 -15 9 -26 -20 -18 -47 6 -21 6 -21
-10 -1 l-15 20 -2 -20 c-1 -11 -1 -23 0 -27 2 -17 -21 -6 -56 25 -68 60 -99
87 -119 102 -10 8 -14 15 -7 15 6 0 14 -4 17 -9 9 -14 58 0 52 15 -3 7 2 17
11 22 10 6 12 12 5 16 -6 3 -18 -2 -28 -11 -10 -10 -32 -18 -50 -18 -28 0 -33
3 -31 23 1 12 6 22 13 22 6 0 11 7 11 15 0 8 -6 15 -13 15 -17 0 -23 21 -13
48 7 18 16 22 50 22 l42 0 -24 -21 c-19 -17 -21 -22 -9 -29 35 -22 172 7 190
39 15 29 2 60 -22 53 -14 -3 -19 -1 -15 5 4 6 30 14 57 18 32 4 50 12 50 20 0
17 -17 28 -30 20 -5 -3 -42 -8 -81 -10 -43 -2 -80 -10 -95 -20 -37 -24 -124
-36 -131 -19 -7 20 4 58 25 84 l18 22 40 -20 c21 -11 58 -20 81 -20 37 -1 44
3 49 23 3 13 14 31 25 41 10 9 19 21 19 25 0 11 -141 4 -149 -8 -3 -6 -16 -13
-29 -17 -28 -9 -39 13 -22 44 7 13 8 20 3 17 -5 -3 -21 -32 -37 -65 -23 -48
-36 -63 -71 -80 l-44 -21 -40 42 c-39 40 -57 84 -49 123 2 13 19 21 63 29 44
8 78 23 123 54 34 24 63 51 66 60 6 21 2 53 -8 69 -4 7 -2 12 6 12 7 1 2 7
-12 15 -22 11 -43 11 -138 -1 -62 -7 -118 -16 -124 -20 -23 -14 39 212 70 256
10 14 53 48 95 75 42 28 79 56 81 63 3 7 0 25 -6 40 -6 15 -11 30 -10 33 1 3
-12 19 -29 35 -27 26 -32 27 -61 16 -34 -12 -52 -7 -28 8 26 17 61 11 94 -15z
m636 5 c0 -5 -2 -10 -4 -10 -3 0 -8 5 -11 10 -3 6 -1 10 4 10 6 0 11 -4 11
-10z m-1482 -33 c2 -15 -1 -27 -7 -27 -6 0 -11 3 -11 8 0 4 -3 18 -7 31 -4 18
-2 23 8 19 8 -2 15 -17 17 -31z m726 26 c3 -4 -3 -12 -15 -19 -13 -6 -24 -19
-25 -28 -2 -16 0 -16 21 -2 14 9 28 16 32 16 4 0 0 -5 -10 -11 -9 -6 -15 -14
-12 -19 3 -5 -4 -14 -15 -20 -11 -6 -34 -29 -50 -52 -17 -23 -30 -37 -30 -31
0 5 3 13 7 17 11 11 31 76 24 76 -10 0 -91 -100 -91 -111 0 -5 -4 -9 -9 -9
-13 0 -1 40 25 80 23 37 62 75 104 103 29 18 34 20 44 10z m-649 -53 c4 -16
11 -32 16 -35 19 -12 9 -36 -13 -33 -19 2 -23 10 -24 38 -1 19 -2 40 -4 45 -4
17 0 26 9 20 5 -3 12 -19 16 -35z m1547 -2 c-7 -7 -12 -8 -12 -2 0 6 3 14 7
17 3 4 9 5 12 2 2 -3 -1 -11 -7 -17z m-848 -7 c-9 -9 -34 -9 -34 -1 0 5 9 8
20 7 10 -1 17 -3 14 -6z m790 -13 c-4 -6 1 -17 11 -25 18 -12 18 -13 -3 -13
-18 0 -22 6 -22 31 0 18 4 28 10 24 6 -4 7 -11 4 -17z m476 -8 c0 -5 -2 -10
-4 -10 -3 0 -8 5 -11 10 -3 6 -1 10 4 10 6 0 11 -4 11 -10z m-1274 -14 c-51
-48 -128 -107 -133 -102 -7 6 42 73 71 97 22 18 82 23 62 5z m894 -36 c0 -4
-6 -10 -14 -13 -10 -4 -12 0 -9 14 5 18 23 18 23 -1z m400 -1 c0 -5 -7 -9 -15
-9 -15 0 -20 12 -9 23 8 8 24 -1 24 -14z m-454 -16 c-10 -10 -19 5 -10 18 6
11 8 11 12 0 2 -7 1 -15 -2 -18z m414 5 c0 -6 -6 -5 -15 2 -8 7 -15 14 -15 16
0 2 7 1 15 -2 8 -4 15 -11 15 -16z m-103 6 c-3 -3 -12 -4 -19 -1 -8 3 -5 6 6
6 11 1 17 -2 13 -5z m-340 -34 c3 -23 -9 -26 -26 -7 -8 10 -7 17 1 25 14 14
21 9 25 -18z m620 14 c-3 -3 -12 -4 -19 -1 -8 3 -5 6 6 6 11 1 17 -2 13 -5z
m-62 -14 c-8 -13 -35 -13 -55 0 -11 7 -5 10 23 10 23 0 36 -4 32 -10z m-176
-12 c11 -10 14 -10 18 0 3 6 17 12 31 11 27 0 27 0 4 -10 -22 -8 -22 -29 -1
-29 6 0 8 3 5 8 -6 10 65 9 82 -1 6 -5 12 -12 12 -18 0 -14 -26 -11 -40 6 -9
11 -16 13 -24 5 -16 -16 -76 -12 -82 5 -4 8 -15 15 -26 15 -10 0 -16 5 -13 10
8 13 18 13 34 -2z m299 -1 c8 -10 5 -12 -16 -11 -38 3 -39 4 -17 14 11 5 21 9
21 9 1 1 6 -5 12 -12z m-63 -28 c-3 -9 -18 -13 -38 -12 -44 2 -45 3 -19 13 12
5 30 6 39 3 13 -5 15 -3 9 13 -5 14 -4 16 4 8 6 -6 8 -17 5 -25z m-635 -11 c0
-12 -3 -18 -7 -14 -11 10 -12 36 -2 36 5 0 9 -10 9 -22z m730 -8 c0 -5 -4 -10
-10 -10 -5 0 -10 5 -10 10 0 6 5 10 10 10 6 0 10 -4 10 -10z m-480 -4 c0 -3
-4 -8 -10 -11 -5 -3 -10 -1 -10 4 0 6 5 11 10 11 6 0 10 -2 10 -4z m436 -21
c0 -14 -7 -25 -14 -25 -7 0 -15 -7 -18 -15 -4 -8 -11 -12 -17 -8 -6 4 -3 11 7
19 20 14 13 33 -12 35 -11 1 -8 4 8 9 41 13 48 11 46 -15z m-570 -4 c27 5 35
-1 20 -16 -16 -17 -36 -20 -36 -6 0 5 -3 18 -6 28 -4 13 -3 14 3 5 6 -7 14
-12 19 -11z m97 -1 c-4 -16 -8 -18 -20 -9 -11 10 -11 14 -1 20 21 14 26 10 21
-11z m237 -20 c1 8 2 18 1 23 0 4 4 7 9 7 6 0 10 -5 10 -11 0 -5 5 -7 10 -4 6
3 10 -1 10 -10 0 -11 7 -14 25 -11 23 4 28 0 23 -21 0 -5 -9 -7 -20 -5 -10 2
-18 -1 -18 -7 0 -5 15 -12 33 -14 l32 -4 -37 -1 c-33 -2 -37 1 -43 28 -6 28
-25 43 -25 20 0 -12 -10 -13 -28 -2 -8 6 -10 16 -5 28 6 17 8 17 14 -6 4 -14
8 -18 9 -10z m-430 -1 c0 -4 -6 -12 -14 -16 -7 -4 -16 -15 -19 -23 -4 -11 -2
43 2 57 2 6 31 -10 31 -18z m385 11 c3 -5 1 -10 -4 -10 -6 0 -11 5 -11 10 0 6
2 10 4 10 3 0 8 -4 11 -10z m-335 -21 c0 -14 -17 -10 -23 5 -4 10 -1 13 9 9 7
-3 14 -9 14 -14z m94 6 c-4 -8 -11 -15 -16 -15 -6 0 -5 6 2 15 7 8 14 15 16
15 2 0 1 -7 -2 -15z m453 -16 c1 -11 -3 -17 -9 -13 -6 4 -8 -1 -3 -15 4 -15 2
-21 -9 -21 -9 0 -13 6 -10 14 3 8 1 17 -5 20 -15 10 -3 32 17 33 11 1 18 -6
19 -18z m113 11 c0 -5 -4 -10 -10 -10 -5 0 -10 5 -10 10 0 6 5 10 10 10 6 0
10 -4 10 -10z m-545 -20 c3 -5 1 -10 -4 -10 -6 0 -11 5 -11 10 0 6 2 10 4 10
3 0 8 -4 11 -10z m-142 -32 c-2 -5 1 -15 7 -23 12 -15 2 -19 -45 -18 -6 0 -11
-8 -11 -18 0 -11 4 -19 8 -19 4 0 8 5 8 10 0 6 6 10 13 10 8 0 11 -13 10 -37
-1 -21 -2 -39 -4 -40 -2 -4 -6 -20 -8 -34 0 -5 -5 -8 -10 -5 -4 3 -7 23 -5 45
2 26 -1 41 -10 44 -16 6 -28 47 -14 47 5 0 6 10 3 23 -7 22 -7 22 9 2 15 -19
15 -19 16 13 0 29 2 31 19 20 11 -7 17 -16 14 -20z m207 -9 c0 -5 4 -8 9 -4 5
3 12 1 16 -5 7 -11 -5 -13 -29 -4 -18 7 -22 24 -6 24 6 0 10 -5 10 -11z m390
1 c0 -5 -4 -10 -10 -10 -5 0 -10 5 -10 10 0 6 5 10 10 10 6 0 10 -4 10 -10z
m43 3 c-7 -2 -19 -2 -25 0 -7 3 -2 5 12 5 14 0 19 -2 13 -5z m-355 -28 c-3 -3
-9 2 -12 12 -6 14 -5 15 5 6 7 -7 10 -15 7 -18z m39 19 c-3 -3 -12 -4 -19 -1
-8 3 -5 6 6 6 11 1 17 -2 13 -5z m298 -14 c3 -6 -4 -10 -17 -10 -18 0 -20 2
-8 10 19 12 18 12 25 0z m29 -5 c-4 -8 -2 -15 4 -15 5 0 15 7 22 15 7 8 20 15
29 15 13 -1 12 -3 -4 -12 -11 -7 -26 -18 -33 -25 -7 -7 -18 -13 -23 -13 -10 0
-12 33 -2 43 10 11 13 8 7 -8z m-74 -3 c0 -4 -10 -9 -22 -9 -18 -2 -20 0 -8 7
18 12 30 13 30 2z m-350 -12 c0 -5 -7 -10 -16 -10 -8 0 -12 5 -9 10 3 6 10 10
16 10 5 0 9 -4 9 -10z m-110 -10 c0 -5 -5 -10 -11 -10 -5 0 -7 5 -4 10 3 6 8
10 11 10 2 0 4 -4 4 -10z m-533 -15 c7 -20 3 -23 -35 -31 -25 -5 -32 -3 -32 9
0 31 56 49 67 22z m723 5 c0 -5 -2 -10 -4 -10 -3 0 -8 5 -11 10 -3 6 -1 10 4
10 6 0 11 -4 11 -10z m-1810 -10 c0 -5 -4 -10 -10 -10 -5 0 -10 5 -10 10 0 6
5 10 10 10 6 0 10 -4 10 -10z m2180 -60 c0 -6 -4 -8 -10 -5 -12 8 -13 3 0 -29
11 -31 -3 -44 -27 -24 -9 7 -14 8 -10 2 4 -7 -2 -14 -13 -17 -14 -4 -18 -10
-13 -22 6 -17 7 -17 19 -1 12 17 13 16 23 -3 6 -11 11 -21 11 -23 0 -7 -66 0
-90 10 -23 9 -24 10 -5 18 19 8 66 56 60 62 -2 2 -17 -6 -34 -19 -30 -22 -31
-22 -51 -4 -26 23 -26 50 0 52 11 1 20 -2 20 -8 0 -18 29 -9 35 11 3 11 15 20
26 20 11 0 19 7 19 17 0 14 3 14 20 -5 11 -12 20 -26 20 -32z m-431 23 c8 -14
11 -15 25 -4 9 8 19 12 21 9 11 -10 -25 -30 -63 -34 -29 -3 -43 0 -53 13 -12
15 -12 16 1 8 22 -14 50 -13 50 1 0 7 -6 15 -12 17 -8 3 -6 6 4 6 9 1 21 -7
27 -16z m291 7 c0 -5 -7 -10 -15 -10 -8 0 -15 5 -15 10 0 6 7 10 15 10 8 0 15
-4 15 -10z m40 0 c0 -5 -4 -10 -10 -10 -5 0 -10 5 -10 10 0 6 5 10 10 10 6 0
10 -4 10 -10z m-630 -10 c0 -5 -2 -10 -4 -10 -3 0 -8 5 -11 10 -3 6 -1 10 4
10 6 0 11 -4 11 -10z m87 4 c-3 -3 -12 -4 -19 -1 -8 3 -5 6 6 6 11 1 17 -2 13
-5z m371 -15 c-18 -12 -58 -11 -58 0 0 11 38 19 58 13 11 -4 11 -6 0 -13z
m-324 -24 c3 -8 3 -15 0 -15 -3 0 -12 7 -20 15 -13 13 -13 15 -1 15 8 0 17 -7
21 -15z m96 -5 c0 -5 -2 -10 -4 -10 -3 0 -8 5 -11 10 -3 6 -1 10 4 10 6 0 11
-4 11 -10z m-632 -19 c10 -6 10 -10 -2 -20 -17 -14 -93 -34 -80 -21 5 5 20 10
34 12 17 2 25 9 24 21 -2 19 4 21 24 8z m-933 -73 c-20 -59 -65 -150 -65 -130
0 7 10 34 23 60 13 26 29 66 37 90 7 23 15 40 18 38 2 -3 -4 -29 -13 -58z
m478 45 c-33 -17 -51 -13 -38 6 3 6 21 11 38 10 l32 0 -32 -16z m1047 5 c0
-11 -12 -10 -30 2 -12 7 -10 9 8 7 12 0 22 -5 22 -9z m56 -25 c-3 -3 -13 -2
-23 2 -17 7 -17 8 2 15 19 7 34 -5 21 -17z m48 6 c-3 -5 -10 -7 -15 -3 -5 3
-7 10 -3 15 3 5 10 7 15 3 5 -3 7 -10 3 -15z m84 -8 c23 -7 42 -17 42 -24 0
-7 10 -17 23 -22 12 -6 21 -14 20 -20 -3 -14 -106 -26 -118 -14 -7 7 -4 8 8 4
9 -4 17 -3 17 3 0 18 -25 30 -60 27 -19 -1 -44 1 -55 6 -14 6 -8 8 21 5 23 -1
49 3 58 10 16 11 16 13 -3 19 -12 3 -19 11 -15 16 3 5 8 7 12 5 4 -2 26 -9 50
-15z m352 -1 c0 -5 -4 -10 -10 -10 -5 0 -10 5 -10 10 0 6 5 10 10 10 6 0 10
-4 10 -10z m-1488 -52 c-9 -9 -12 -7 -12 12 0 19 3 21 12 12 9 -9 9 -15 0 -24z
m776 -10 c-6 -18 -28 -21 -28 -4 0 9 7 16 16 16 9 0 14 -5 12 -12z m122 -8 c0
-5 -4 -10 -10 -10 -5 0 -10 5 -10 10 0 6 5 10 10 10 6 0 10 -4 10 -10z m125
-10 c10 -11 14 -20 9 -20 -5 0 -15 9 -22 20 -7 11 -11 20 -9 20 2 0 12 -9 22
-20z m-40 -10 c3 -6 -1 -7 -9 -4 -18 7 -21 14 -7 14 6 0 13 -4 16 -10z m-215
-15 c0 -8 4 -15 10 -15 5 0 7 -7 4 -15 -6 -15 -44 -22 -44 -7 1 37 30 73 30
37z m165 -25 c3 -5 2 -10 -4 -10 -5 0 -13 5 -16 10 -3 6 -2 10 4 10 5 0 13 -4
16 -10z m82 -16 c-3 -3 -12 -4 -19 -1 -8 3 -5 6 6 6 11 1 17 -2 13 -5z m-273
-44 c5 0 6 7 2 15 -3 8 -1 15 4 15 6 0 10 -6 10 -14 0 -8 10 -22 23 -31 22
-16 22 -16 -7 -9 l-29 7 26 -35 c15 -19 27 -39 27 -44 1 -5 10 -20 21 -33 17
-21 22 -22 30 -10 5 9 9 10 9 2 0 -6 -5 -15 -11 -19 -8 -4 -10 -26 -6 -61 4
-39 2 -53 -6 -50 -7 2 -11 15 -9 29 2 13 -4 31 -12 38 -9 7 -16 18 -16 25 0
14 -27 28 -40 20 -5 -3 -8 3 -8 12 2 19 -71 133 -84 133 -4 0 -8 5 -8 11 0 6
7 8 16 5 14 -5 15 -4 5 8 -19 23 10 27 35 5 11 -11 24 -19 28 -19z m241 20
c-3 -5 -11 -10 -16 -10 -6 0 -7 5 -4 10 3 6 11 10 16 10 6 0 7 -4 4 -10z m315
0 c0 -5 -4 -10 -10 -10 -5 0 -10 5 -10 10 0 6 5 10 10 10 6 0 10 -4 10 -10z
m-618 -102 c43 -68 44 -69 67 -138 22 -68 25 -108 10 -150 l-8 -25 1 25 c1 64
-3 91 -12 85 -7 -4 -9 2 -4 19 4 18 2 28 -8 31 -9 4 -14 18 -13 35 2 28 -11
35 -28 15 -5 -6 -6 -3 -3 8 3 9 -3 36 -13 60 -10 23 -23 58 -29 77 -13 40 -7
34 40 -42z m668 52 c0 -5 -5 -10 -11 -10 -5 0 -7 5 -4 10 3 6 8 10 11 10 2 0
4 -4 4 -10z m-437 -55 c-3 -9 -8 -14 -10 -11 -3 3 -2 9 2 15 9 16 15 13 8 -4z
m-1747 -55 c22 0 24 -4 26 -52 5 -144 -4 -270 -18 -255 -9 9 -36 139 -40 187
-1 25 -5 70 -7 100 -5 56 5 98 11 48 3 -22 9 -28 28 -28z m1720 -29 c-12 -19
-24 -12 -19 10 4 13 9 17 15 11 6 -6 7 -15 4 -21z m609 19 c3 -5 1 -10 -4 -10
-6 0 -11 5 -11 10 0 6 2 10 4 10 3 0 8 -4 11 -10z m-65 -29 c0 -6 -4 -12 -8
-15 -5 -3 -9 1 -9 9 0 8 4 15 9 15 4 0 8 -4 8 -9z m-90 -25 c9 -12 8 -15 -8
-13 -12 0 -18 6 -15 14 6 16 8 16 23 -1z m-272 -12 c21 -4 27 -14 9 -14 -22 0
-22 -17 1 -24 10 -3 6 -4 -8 -3 -15 1 -25 8 -25 17 0 8 -4 21 -9 29 -7 11 -6
12 5 5 8 -4 20 -9 27 -10z m164 4 c-11 -11 -52 -20 -52 -11 0 4 41 21 55 22 5
1 4 -4 -3 -11z m-1932 -20 c0 -19 -2 -20 -10 -8 -13 19 -13 30 0 30 6 0 10
-10 10 -22z m748 -1 c3 -16 1 -17 -17 -5 -25 16 -27 31 -4 26 10 -2 19 -11 21
-21z m839 17 c-3 -3 -12 -4 -19 -1 -8 3 -5 6 6 6 11 1 17 -2 13 -5z m397 -10
c4 -9 4 -19 1 -22 -3 -3 -5 0 -5 6 0 7 -7 12 -15 12 -8 0 -15 5 -15 10 0 16
27 11 34 -6z m106 -23 c-12 -24 -33 -32 -92 -37 -26 -2 -53 -5 -59 -6 -6 -2
-13 2 -16 8 -2 6 9 12 24 13 68 4 85 7 91 16 11 15 46 33 55 28 4 -2 3 -12 -3
-22z m-860 -26 c0 -14 -6 -25 -14 -25 -9 0 -12 8 -8 25 2 14 8 25 13 25 5 0 9
-11 9 -25z m600 15 c0 -5 -4 -10 -10 -10 -5 0 -10 5 -10 10 0 6 5 10 10 10 6
0 10 -4 10 -10z m-185 -20 c-3 -5 -12 -10 -18 -10 -7 0 -6 4 3 10 19 12 23 12
15 0z m260 -19 c-3 -6 -11 -11 -17 -11 -6 0 -6 6 2 15 14 17 26 13 15 -4z
m-136 -28 c2 -2 -3 -3 -11 -3 -9 0 -19 7 -22 16 -6 15 -4 15 11 3 10 -7 20
-15 22 -16z m-1074 7 c3 -5 2 -10 -4 -10 -5 0 -13 5 -16 10 -3 6 -2 10 4 10 5
0 13 -4 16 -10z m47 -3 c-18 -11 -20 -15 -10 -27 11 -12 10 -12 -5 -1 -13 11
-15 17 -6 27 6 8 19 14 28 14 12 -1 10 -4 -7 -13z m610 -89 c-6 -6 -9 0 -9 18
0 23 1 24 9 10 7 -12 7 -21 0 -28z m-29 -25 c-5 -12 -2 -15 10 -10 15 6 16 4
6 -16 -7 -12 -19 -27 -27 -33 -9 -6 -12 -16 -7 -24 7 -11 -9 -29 -27 -30 -13
0 -1 30 21 56 16 19 20 29 12 37 -16 16 -14 37 4 37 9 0 12 -6 8 -17z m-233
-26 c0 -4 -9 -2 -20 5 -13 9 -16 14 -7 20 11 6 27 -8 27 -25z m-229 6 c13 -16
12 -17 -3 -4 -10 7 -18 15 -18 17 0 8 8 3 21 -13z m-971 -19 c0 -8 -5 -12 -10
-9 -6 4 -8 11 -5 16 9 14 15 11 15 -7z m931 -41 c13 -17 13 -17 -6 -3 -11 8
-22 16 -24 17 -2 2 0 3 6 3 6 0 17 -8 24 -17z m-21 -19 c0 -2 -10 -9 -22 -15
-20 -11 -21 -10 -11 3 7 8 10 18 6 22 -4 4 0 4 10 0 9 -3 17 -8 17 -10z m-120
-2 c0 -5 -12 -14 -27 -21 l-28 -11 24 20 c26 22 31 24 31 12z m596 -47 c-9
-10 -17 -11 -21 -5 -12 19 -33 11 -28 -10 3 -11 10 -17 15 -14 5 3 4 -3 -3
-14 -7 -11 -25 -27 -41 -36 -15 -10 -28 -23 -28 -30 0 -9 -15 -13 -47 -12 -25
1 -48 -3 -50 -9 -1 -6 14 -10 37 -9 22 0 40 -3 40 -8 0 -7 -24 -12 -43 -9 -5
1 -6 -3 -2 -9 4 -6 -3 -9 -16 -7 -12 1 -24 -5 -27 -13 -3 -11 -2 -12 8 -4 13
13 53 7 44 -7 -3 -5 -14 -9 -25 -9 -10 0 -19 -4 -19 -10 0 -12 -22 -9 -32 5
-5 6 -8 5 -8 -2 0 -9 -10 -11 -30 -7 -18 4 -36 1 -46 -7 -20 -17 -36 5 -30 41
4 23 3 24 -10 5 -13 -17 -18 -38 -15 -57 0 -5 -4 -8 -10 -8 -6 0 -8 8 -4 19 5
16 2 18 -15 14 -11 -3 -20 -2 -20 1 0 8 49 106 53 106 2 0 3 -9 3 -20 0 -11
-4 -20 -8 -20 -4 0 -8 -5 -8 -11 0 -6 -7 -17 -15 -26 -18 -18 -15 -26 7 -18 8
3 20 22 27 42 9 23 16 31 21 23 5 -8 17 5 35 39 16 28 30 49 33 46 3 -2 -2
-15 -10 -27 -19 -31 -29 -58 -20 -58 4 0 13 14 20 30 8 17 18 28 23 24 5 -3 9
2 9 11 0 9 5 13 10 10 6 -4 8 -10 5 -15 -6 -10 20 -32 28 -23 11 10 8 25 -3
18 -5 -3 -10 -2 -10 4 0 5 9 9 20 8 14 -1 19 -6 15 -17 -5 -11 -3 -12 6 -3 15
15 3 33 -22 33 -10 0 -19 7 -19 15 0 18 17 20 22 3 2 -6 10 -8 17 -4 7 5 10
15 7 23 -4 10 -2 13 8 10 9 -4 17 1 19 11 4 16 5 16 6 0 0 -9 -3 -20 -9 -23
-5 -3 -10 -15 -10 -26 0 -19 1 -19 16 -5 8 9 20 16 25 16 5 0 9 5 9 11 0 8 -6
7 -17 -2 -15 -13 -15 -12 -3 8 l14 22 24 -27 c13 -15 21 -21 18 -14 -4 6 -2
12 3 12 6 0 11 9 11 20 0 11 -6 19 -12 18 -7 -2 -12 3 -10 10 2 14 -14 16 -21
2 -3 -6 -4 -5 -3 2 2 8 18 13 39 13 19 0 38 3 42 7 4 3 15 -2 26 -13 17 -17
18 -21 5 -34z m-216 35 c0 -5 -5 -10 -11 -10 -5 0 -7 5 -4 10 3 6 8 10 11 10
2 0 4 -4 4 -10z m823 -20 c3 -11 1 -20 -4 -20 -5 0 -9 6 -9 14 0 8 -8 17 -17
19 -14 4 -14 5 3 6 14 1 24 -6 27 -19z m-53 0 c0 -5 -2 -10 -4 -10 -3 0 -8 5
-11 10 -3 6 -1 10 4 10 6 0 11 -4 11 -10z m249 -7 c-10 -11 -10 -14 -1 -9 17
10 15 -4 -5 -26 -20 -22 -35 -24 -27 -3 5 11 2 13 -10 9 -9 -3 -16 -10 -16
-14 0 -5 -28 -9 -62 -9 -35 0 -64 -5 -66 -10 -6 -18 -22 -12 -22 8 0 24 7 29
56 37 22 3 57 9 78 14 22 5 44 7 48 4 4 -3 8 0 8 5 0 6 7 11 16 11 14 0 15 -2
3 -17z m-1474 -71 c-8 -9 -34 7 -45 28 -12 22 -11 22 19 -1 17 -12 29 -25 26
-27z m1345 -12 c12 -8 9 -9 -12 -8 -15 1 -24 6 -22 10 7 10 16 10 34 -2z
m-1135 -28 c-3 -3 -11 0 -18 7 -9 10 -8 11 6 5 10 -3 15 -9 12 -12z m1054 9
c10 -6 10 -10 1 -16 -7 -4 -19 0 -28 9 -14 13 -14 16 -2 16 8 0 21 -4 29 -9z
m-1122 -17 c-3 -3 -12 -4 -19 -1 -8 3 -5 6 6 6 11 1 17 -2 13 -5z m1186 -11
c-7 -2 -21 -2 -30 0 -10 3 -4 5 12 5 17 0 24 -2 18 -5z m-55 -67 c-7 -8 -17
-12 -22 -9 -4 3 -2 9 5 14 22 13 31 11 17 -5z m87 4 c19 -8 19 -8 -5 -17 -26
-11 -60 -6 -60 7 0 5 8 11 18 13 24 7 25 7 47 -3z m-865 -34 c0 -3 -4 -8 -10
-11 -5 -3 -10 -1 -10 4 0 6 5 11 10 11 6 0 10 -2 10 -4z m1030 -10 c0 -8 -71
-12 -76 -4 -3 4 13 8 35 8 23 0 41 -2 41 -4z m-1145 -16 c3 -5 12 -7 20 -3 10
3 13 1 10 -9 -4 -9 2 -14 15 -14 13 0 19 5 16 13 -3 7 -1 13 4 13 6 0 10 -7
10 -16 0 -12 6 -15 21 -11 20 5 19 3 -6 -23 -26 -27 -30 -28 -49 -15 -24 17
-79 20 -107 5 -24 -14 -26 5 -1 19 13 8 13 10 3 11 -12 0 -12 3 -3 12 10 10
15 10 22 -2 7 -12 12 -12 22 -2 9 9 9 12 -1 12 -7 0 -9 5 -6 10 8 13 22 13 30
0z m1246 -35 c5 4 9 1 9 -4 0 -16 -37 -13 -43 3 -8 20 5 29 16 11 4 -8 12 -13
18 -10z m-56 5 c3 -5 1 -10 -4 -10 -6 0 -11 5 -11 10 0 6 2 10 4 10 3 0 8 -4
11 -10z m-80 -10 c13 -6 15 -9 5 -9 -8 -1 -27 -8 -42 -15 -32 -17 -36 -11 -10
15 20 20 20 21 47 9z m-1140 -40 c3 -5 1 -10 -4 -10 -6 0 -11 5 -11 10 0 6 2
10 4 10 3 0 8 -4 11 -10z m66 -37 c11 -13 11 -15 1 -9 -8 5 -26 12 -40 16
l-27 8 26 1 c15 1 33 -7 40 -16z m1009 -44 c0 -5 -4 -9 -8 -9 -5 0 -9 7 -9 15
0 8 4 12 9 9 4 -3 8 -9 8 -15z m41 -14 c5 4 9 -1 9 -9 0 -9 -6 -16 -14 -16
-17 0 -29 27 -19 43 5 8 9 6 11 -6 2 -9 8 -15 13 -12z m-76 -5 c-3 -5 -10 -10
-16 -10 -5 0 -9 5 -9 10 0 6 7 10 16 10 8 0 12 -4 9 -10z m205 -30 c0 -5 -10
-10 -22 -9 -22 0 -22 1 -3 9 11 5 21 9 23 9 1 1 2 -3 2 -9z"/>
<path d="M1230 1420 c0 -16 81 -100 91 -94 16 10 10 25 -23 55 -41 38 -68 53
-68 39z"/>
<path d="M1020 1070 c-9 -6 -10 -10 -3 -10 6 0 15 5 18 10 8 12 4 12 -15 0z"/>
<path d="M1307 1062 c-21 -23 -21 -36 -2 -52 18 -15 20 1 3 19 -11 10 -9 15 6
27 11 7 17 16 14 19 -2 3 -12 -3 -21 -13z"/>
<path d="M1156 1052 c-25 -10 -35 -19 -32 -29 4 -9 1 -13 -6 -10 -7 2 -12 10
-10 16 1 6 -3 11 -9 11 -6 0 -9 -7 -5 -15 3 -8 0 -15 -6 -15 -9 0 -9 -3 0 -12
10 -10 17 -10 31 -1 10 6 22 8 27 4 5 -4 23 9 41 29 35 40 27 45 -31 22z m9
-22 c-3 -5 -11 -10 -16 -10 -6 0 -7 5 -4 10 3 6 11 10 16 10 6 0 7 -4 4 -10z"/>
<path d="M1340 1051 c0 -6 5 -13 10 -16 6 -3 10 1 10 9 0 9 -4 16 -10 16 -5 0
-10 -4 -10 -9z"/>
<path d="M1050 993 c1 -10 122 -104 127 -99 2 2 -8 16 -22 31 -15 14 -24 29
-20 33 4 4 10 2 12 -5 2 -7 11 -9 20 -6 11 4 14 2 9 -5 -9 -15 6 -16 21 -1 11
11 6 49 -7 49 -4 0 -13 -7 -20 -15 -7 -8 -16 -12 -21 -9 -5 3 -17 0 -28 -5
-15 -9 -22 -6 -35 14 -16 24 -37 34 -36 18z"/>
<path d="M2335 1666 c-17 -13 -17 -13 8 -13 15 0 27 3 27 8 0 16 -17 18 -35 5z"/>
<path d="M2270 1620 c0 -5 5 -10 10 -10 6 0 10 5 10 10 0 6 -4 10 -10 10 -5 0
-10 -4 -10 -10z"/>
<path d="M2032 1555 c1 -10 9 -20 16 -21 7 -1 8 0 2 3 -5 2 -8 9 -5 13 3 5 0
12 -6 15 -7 5 -10 1 -7 -10z"/>
<path d="M1330 722 c0 -4 9 -8 20 -9 11 -1 18 2 15 8 -7 11 -35 12 -35 1z"/>
<path d="M1245 670 c-3 -5 -1 -10 4 -10 6 0 11 5 11 10 0 6 -2 10 -4 10 -3 0
-8 -4 -11 -10z"/>
<path d="M1171 630 c-19 -16 -32 -32 -29 -36 4 -3 20 7 36 24 16 16 35 32 43
35 12 4 11 5 -1 6 -8 0 -30 -13 -49 -29z"/>
<path d="M1205 620 c-3 -5 -1 -10 4 -10 6 0 11 5 11 10 0 6 -2 10 -4 10 -3 0
-8 -4 -11 -10z"/>
<path d="M1230 620 c0 -5 5 -10 10 -10 6 0 10 5 10 10 0 6 -4 10 -10 10 -5 0
-10 -4 -10 -10z"/>
<path d="M120 2465 c7 -8 17 -15 22 -15 6 0 5 7 -2 15 -7 8 -17 15 -22 15 -6
0 -5 -7 2 -15z"/>
<path d="M1077 2365 c-4 -8 -3 -16 2 -19 4 -3 4 -31 1 -63 -8 -68 -3 -93 17
-93 26 0 2 -20 -25 -21 -24 0 -25 -1 -7 -8 11 -5 26 -6 33 -4 6 3 12 0 12 -7
0 -6 4 -9 8 -6 11 6 9 36 -3 55 -4 8 -7 33 -7 57 1 23 -2 45 -7 49 -5 3 -7 21
-4 40 6 35 -9 50 -20 20z"/>
<path d="M1397 2361 c-4 -17 -3 -21 5 -13 5 5 8 16 6 23 -3 8 -7 3 -11 -10z"/>
<path d="M0 2344 c0 -14 4 -23 10 -19 13 8 13 45 0 45 -5 0 -10 -12 -10 -26z"/>
<path d="M1420 2304 c0 -8 5 -12 10 -9 6 4 8 11 5 16 -9 14 -15 11 -15 -7z"/>
<path d="M0 2264 c0 -14 4 -23 9 -20 5 3 7 15 4 26 -7 28 -13 25 -13 -6z"/>
<path d="M1 2088 c-1 -38 2 -46 14 -42 17 7 20 25 6 40 -5 5 -11 18 -14 29 -3
11 -5 -1 -6 -27z"/>
<path d="M471 2064 c-19 -25 -27 -44 -17 -44 2 0 13 16 25 35 24 42 21 45 -8
9z"/>
<path d="M2491 1774 c0 -11 3 -14 6 -6 3 7 2 16 -1 19 -3 4 -6 -2 -5 -13z"/>
<path d="M2460 1720 c0 -5 5 -10 11 -10 5 0 7 5 4 10 -3 6 -8 10 -11 10 -2 0
-4 -4 -4 -10z"/>
<path d="M2426 1695 c4 -8 10 -15 15 -15 5 0 9 7 9 15 0 8 -7 15 -15 15 -9 0
-12 -6 -9 -15z"/>
<path d="M2460 1559 c-20 -8 -22 -12 -10 -19 9 -6 16 -6 18 0 2 6 10 10 18 10
8 0 14 5 14 10 0 12 -7 12 -40 -1z"/>
<path d="M2390 1499 c0 -5 5 -7 10 -4 6 3 10 8 10 11 0 2 -4 4 -10 4 -5 0 -10
-5 -10 -11z"/>
<path d="M2480 1478 c0 -36 4 -35 14 5 4 16 2 27 -4 27 -5 0 -10 -14 -10 -32z"/>
<path d="M2210 1470 c-9 -6 -10 -10 -3 -10 6 0 15 5 18 10 8 12 4 12 -15 0z"/>
<path d="M2253 1473 c9 -2 25 -2 35 0 9 3 1 5 -18 5 -19 0 -27 -2 -17 -5z"/>
<path d="M2355 1460 c3 -5 8 -10 11 -10 2 0 4 5 4 10 0 6 -5 10 -11 10 -5 0
-7 -4 -4 -10z"/>
<path d="M2357 1153 c-12 -12 -7 -21 10 -19 21 3 30 26 11 26 -8 0 -18 -3 -21
-7z"/>
<path d="M2424 1143 c5 -15 3 -23 -5 -23 -22 0 0 -13 26 -16 16 -2 25 2 25 11
0 8 8 19 18 24 14 9 13 10 -11 11 -20 0 -26 -4 -21 -12 4 -7 -3 -4 -16 7 l-23
20 7 -22z"/>
<path d="M2485 1110 c-3 -5 -1 -10 4 -10 6 0 11 5 11 10 0 6 -2 10 -4 10 -3 0
-8 -4 -11 -10z"/>
<path d="M2477 1073 c-4 -3 -7 -11 -7 -17 0 -6 5 -5 12 2 6 6 9 14 7 17 -3 3
-9 2 -12 -2z"/>
<path d="M2461 1024 c0 -11 3 -14 6 -6 3 7 2 16 -1 19 -3 4 -6 -2 -5 -13z"/>
<path d="M2290 976 c-8 -10 -8 -21 -2 -32 8 -14 10 -11 14 15 5 36 5 36 -12
17z"/>
<path d="M2465 970 c-3 -5 1 -10 9 -10 9 0 16 5 16 10 0 6 -4 10 -9 10 -6 0
-13 -4 -16 -10z"/>
<path d="M2210 962 c0 -9 44 -32 58 -32 10 1 -38 40 -49 40 -5 0 -9 -4 -9 -8z"/>
<path d="M2353 953 c-7 -2 -13 -11 -13 -19 0 -8 -5 -14 -11 -14 -5 0 -7 -5 -4
-11 4 -6 13 -8 21 -5 8 3 14 -1 14 -11 0 -13 3 -13 15 -3 8 7 15 19 15 26 0 8
-6 11 -15 8 -8 -4 -15 -2 -15 3 0 18 13 22 34 12 20 -10 20 -10 2 5 -21 17
-24 17 -43 9z"/>
<path d="M2168 923 c-24 -12 -40 -43 -23 -43 11 0 65 44 65 52 0 11 -10 9 -42
-9z"/>
<path d="M2415 920 c-8 -13 25 -13 45 0 12 8 9 10 -12 10 -15 0 -30 -4 -33
-10z"/>
<path d="M2200 893 c-27 -12 -31 -17 -17 -20 10 -3 24 1 32 7 11 9 15 9 15 1
0 -6 7 -11 16 -11 8 0 12 5 8 11 -9 15 38 0 51 -16 17 -21 51 -27 64 -11 11
13 7 14 -26 10 l-38 -5 25 16 c23 15 24 16 3 12 -12 -3 -24 0 -25 5 -6 17 -72
18 -108 1z"/>
<path d="M2440 890 c-8 -5 -12 -11 -10 -14 3 -2 14 2 24 10 22 15 10 19 -14 4z"/>
<path d="M2400 855 c7 -8 18 -15 24 -14 7 0 6 2 -2 6 -6 2 -10 9 -6 14 3 5 -2
9 -12 9 -13 0 -14 -3 -4 -15z"/>
<path d="M2414 455 c3 -8 1 -15 -5 -15 -6 0 -9 -7 -5 -15 3 -8 -2 -19 -12 -24
-9 -6 -12 -11 -6 -11 15 0 36 25 27 33 -3 4 1 9 10 13 16 6 12 34 -5 34 -6 0
-8 -7 -4 -15z"/>
<path d="M2452 445 c0 -16 2 -22 5 -12 2 9 2 23 0 30 -3 6 -5 -1 -5 -18z"/>
<path d="M2475 430 c-3 -5 1 -10 9 -10 9 0 16 5 16 10 0 6 -4 10 -9 10 -6 0
-13 -4 -16 -10z"/>
<path d="M2467 367 c-3 -8 -1 -20 4 -28 5 -8 9 -12 10 -9 0 3 2 13 4 22 4 22
-11 33 -18 15z"/>
</g>
</svg>
